<svg xmlns="http://www.w3.org/2000/svg" viewBox="0 0 1600 900" role="img" aria-labelledby="title desc">
<title id="title">AGENTROPOLIS ATG stack</title><desc id="desc">Holographic diagram showing ATG, Atranic, and ATRALITH.</desc>
<defs>
  <radialGradient id="bg" cx="50%" cy="45%"><stop offset="0" stop-color="#10232a"/><stop offset=".55" stop-color="#05090d"/><stop offset="1" stop-color="#020406"/></radialGradient>
  <linearGradient id="red" x1="0" x2="1"><stop stop-color="#ff233f"/><stop offset="1" stop-color="#7e071b"/></linearGradient>
  <linearGradient id="cyan" x1="0" x2="1"><stop stop-color="#53f3ff"/><stop offset="1" stop-color="#087f9a"/></linearGradient>
  <linearGradient id="purple" x1="0" x2="1"><stop stop-color="#d45cff"/><stop offset="1" stop-color="#5a147c"/></linearGradient>
  <filter id="glow"><feGaussianBlur stdDeviation="8" result="b"/><feMerge><feMergeNode in="b"/><feMergeNode in="SourceGraphic"/></feMerge></filter>
  <pattern id="grid" width="50" height="50" patternUnits="userSpaceOnUse"><path d="M50 0H0V50" fill="none" stroke="#52eefe" stroke-opacity=".08"/></pattern>
</defs>
<rect width="1600" height="900" fill="url(#bg)"/><rect width="1600" height="900" fill="url(#grid)"/>
<g opacity=".35" stroke="#ff3048"><path d="M0 150H470L540 80H1040L1110 150H1600" fill="none"/><path d="M0 760H420L490 830H1110L1180 760H1600" fill="none"/></g>
<text x="90" y="105" fill="#fff" font-family="Arial" font-weight="800" font-size="52" letter-spacing="10">AGENTROPOLIS-ATG</text>
<text x="90" y="148" fill="#55efff" font-family="monospace" font-size="18" letter-spacing="6">THE OPEN AGENT TRANSACTION GRAMMAR</text>
<g transform="translate(90 235)">
 <rect width="420" height="430" rx="18" fill="#080b0f" stroke="#ff3048" stroke-width="3"/>
 <circle cx="210" cy="120" r="82" fill="none" stroke="#ff3048" stroke-width="3" filter="url(#glow)"/><circle cx="210" cy="120" r="58" fill="none" stroke="#ff3048" stroke-opacity=".4"/>
 <path d="M210 55l55 100h-110zM210 80v110M175 145h70" fill="none" stroke="url(#red)" stroke-width="12" stroke-linejoin="round" filter="url(#glow)"/>
 <text x="210" y="250" text-anchor="middle" fill="#ff4058" font-family="Arial" font-weight="800" font-size="36">ATG</text>
 <text x="210" y="286" text-anchor="middle" fill="#fff" font-family="monospace" font-size="16">THE STANDARD</text>
 <text x="50" y="338" fill="#a9bac0" font-family="Arial" font-size="18">Identity · Mandates · Authority</text><text x="50" y="372" fill="#a9bac0" font-family="Arial" font-size="18">Evidence · Receipts · Reputation</text>
</g>
<g transform="translate(590 235)">
 <rect width="420" height="430" rx="18" fill="#080b0f" stroke="#bd4dff" stroke-width="3"/>
 <circle cx="210" cy="120" r="82" fill="none" stroke="#bd4dff" stroke-width="3" filter="url(#glow)"/><path d="M210 45v145M175 85h70M175 145h70M210 45l-25 40M210 45l25 40" fill="none" stroke="url(#purple)" stroke-width="10" filter="url(#glow)"/>
 <text x="210" y="250" text-anchor="middle" fill="#d26cff" font-family="Arial" font-weight="800" font-size="36">ATRANIC</text>
 <text x="210" y="286" text-anchor="middle" fill="#fff" font-family="monospace" font-size="16">THE LANGUAGE</text>
 <text x="48" y="338" fill="#a9bac0" font-family="Arial" font-size="18">Semantic glyphs · Shared meaning</text><text x="48" y="372" fill="#a9bac0" font-family="Arial" font-size="18">Machine-readable · Human-legible</text>
</g>
<g transform="translate(1090 235)">
 <rect width="420" height="430" rx="18" fill="#080b0f" stroke="#53f3ff" stroke-width="3"/>
 <g transform="translate(115 35)" filter="url(#glow)"><path d="M0 45L95 0l95 45v120l-95 45L0 165z" fill="#07171d" stroke="#53f3ff" stroke-width="4"/><path d="M95 0v210M0 45l95 45 95-45" fill="none" stroke="#53f3ff" stroke-opacity=".5"/></g>
 <text x="210" y="250" text-anchor="middle" fill="#53f3ff" font-family="Arial" font-weight="800" font-size="36">ATRALITH</text>
 <text x="210" y="286" text-anchor="middle" fill="#fff" font-family="monospace" font-size="16">THE AGENT KIT</text>
 <text x="48" y="338" fill="#a9bac0" font-family="Arial" font-size="18">MCP server · SDKs · Validators</text><text x="48" y="372" fill="#a9bac0" font-family="Arial" font-size="18">Adapters · Receipts · Agent tools</text>
</g>
<path d="M510 450h80M1010 450h80" stroke="#b8ff5a" stroke-width="4" stroke-dasharray="10 14" filter="url(#glow)"/>
<text x="800" y="760" text-anchor="middle" fill="#fff" font-family="Arial" font-weight="700" font-size="26">ATG DEFINES THE RULES · ATRANIC CARRIES THE MEANING · ATRALITH RUNS THE TOOLS</text>
<text x="800" y="818" text-anchor="middle" fill="#ff3048" font-family="monospace" font-size="20" letter-spacing="4">BUILT IN PUBLIC BY NEURO</text>
</svg>